<?xml version="1.0" encoding="UTF-8"?>
<svg xmlns="http://www.w3.org/2000/svg" xmlns:xlink="http://www.w3.org/1999/xlink" width="566.929pt" height="141.732pt" viewBox="0 0 566.929 141.732">
<defs>
<g>
<g id="glyph-0-0">
<path d="M 2.828125 -34.859375 L 2.828125 0 L 9.515625 0 L 9.515625 -2.625 C 11.140625 -0.09375 13.390625 1.09375 16.640625 1.09375 C 22.8125 1.09375 27.5 -4.78125 27.5 -12.578125 C 27.5 -16.0625 26.453125 -19.609375 24.734375 -22.09375 C 22.953125 -24.625 19.796875 -26.25 16.640625 -26.25 C 13.4375 -26.25 11.140625 -25.0625 9.515625 -22.484375 L 9.515625 -34.859375 Z M 15.15625 -20.65625 C 18.46875 -20.65625 20.8125 -17.3125 20.8125 -12.53125 C 20.8125 -7.84375 18.46875 -4.5 15.15625 -4.5 C 11.765625 -4.5 9.515625 -7.75 9.515625 -12.671875 C 9.515625 -17.359375 11.8125 -20.65625 15.15625 -20.65625 Z M 15.15625 -20.65625 "/>
</g>
<g id="glyph-0-1">
<path d="M 19.515625 -25.828125 L 19.515625 -21.859375 C 17.5 -24.921875 15.3125 -26.25 12.34375 -26.25 C 6.21875 -26.25 1.625 -20.28125 1.625 -12.296875 C 1.625 -4.25 5.828125 1.09375 12.203125 1.09375 C 15.203125 1.09375 17.03125 0.1875 19.515625 -2.625 L 19.515625 0.859375 C 19.515625 3.96875 17.171875 6.125 13.828125 6.125 C 11.28125 6.125 9.609375 5.0625 9.09375 3.109375 L 2.15625 3.109375 C 2.203125 5.125 2.96875 6.5 4.6875 7.9375 C 6.75 9.609375 9.609375 10.421875 13.578125 10.421875 C 21.375 10.421875 25.875 6.9375 25.875 0.859375 L 25.875 -25.828125 Z M 13.78125 -20.65625 C 17.125 -20.65625 19.609375 -17.171875 19.609375 -12.390625 C 19.609375 -7.703125 17.171875 -4.5 13.671875 -4.5 C 10.515625 -4.5 8.328125 -7.703125 8.328125 -12.390625 C 8.328125 -17.265625 10.515625 -20.65625 13.78125 -20.65625 Z M 13.78125 -20.65625 "/>
</g>
<g id="glyph-0-2">
<path d="M 2.875 -25.828125 L 2.875 0 L 9.5625 0 L 9.5625 -15.5 C 9.5625 -18.65625 11.28125 -20.5625 14.15625 -20.5625 C 16.40625 -20.5625 17.796875 -19.28125 17.796875 -17.21875 L 17.796875 0 L 24.484375 0 L 24.484375 -15.5 C 24.484375 -18.65625 26.203125 -20.5625 29.078125 -20.5625 C 31.328125 -20.5625 32.71875 -19.28125 32.71875 -17.21875 L 32.71875 0 L 39.40625 0 L 39.40625 -18.265625 C 39.40625 -23.296875 36.34375 -26.25 31.1875 -26.25 C 27.9375 -26.25 25.640625 -25.109375 23.625 -22.4375 C 22.390625 -24.875 19.796875 -26.25 16.59375 -26.25 C 13.625 -26.25 11.71875 -25.25 9.515625 -22.625 L 9.515625 -25.828125 Z M 2.875 -25.828125 "/>
</g>
<g id="glyph-0-3">
<path d="M 24.15625 -17.5 C 24.0625 -22.953125 19.84375 -26.25 12.90625 -26.25 C 6.359375 -26.25 2.296875 -22.953125 2.296875 -17.65625 C 2.296875 -15.921875 2.828125 -14.4375 3.734375 -13.4375 C 4.640625 -12.53125 5.453125 -12.09375 7.9375 -11.28125 L 15.921875 -8.796875 C 17.59375 -8.28125 18.171875 -7.75 18.171875 -6.703125 C 18.171875 -5.125 16.3125 -4.15625 13.203125 -4.15625 C 11.484375 -4.15625 10.09375 -4.5 9.234375 -5.0625 C 8.515625 -5.59375 8.21875 -6.125 7.9375 -7.515625 L 1.390625 -7.515625 C 1.578125 -1.859375 5.734375 1.09375 13.578125 1.09375 C 17.171875 1.09375 19.890625 0.328125 21.8125 -1.203125 C 23.71875 -2.71875 24.875 -5.125 24.875 -7.65625 C 24.875 -11 23.203125 -13.15625 19.796875 -14.15625 L 11.328125 -16.59375 C 9.46875 -17.171875 8.984375 -17.546875 8.984375 -18.609375 C 8.984375 -20.046875 10.515625 -21 12.859375 -21 C 16.0625 -21 17.65625 -19.84375 17.703125 -17.5 Z M 24.15625 -17.5 "/>
</g>
<g id="glyph-1-0">
<path d="M 1.109375 0 L 5.6875 0 C 6.65625 0 7.375 -0.265625 7.90625 -0.84375 C 8.40625 -1.375 8.6875 -2.109375 8.6875 -2.90625 C 8.6875 -4.125 8.140625 -4.875 6.84375 -5.375 C 7.765625 -5.796875 8.25 -6.5625 8.25 -7.59375 C 8.25 -8.328125 7.96875 -8.984375 7.4375 -9.453125 C 6.90625 -9.953125 6.203125 -10.171875 5.234375 -10.171875 L 1.109375 -10.171875 Z M 2.40625 -5.796875 L 2.40625 -9.03125 L 4.90625 -9.03125 C 5.640625 -9.03125 6.046875 -8.9375 6.390625 -8.671875 C 6.75 -8.390625 6.953125 -7.96875 6.953125 -7.40625 C 6.953125 -6.859375 6.75 -6.4375 6.390625 -6.15625 C 6.046875 -5.890625 5.640625 -5.796875 4.90625 -5.796875 Z M 2.40625 -1.140625 L 2.40625 -4.640625 L 5.5625 -4.640625 C 6.1875 -4.640625 6.609375 -4.5 6.921875 -4.15625 C 7.234375 -3.84375 7.390625 -3.390625 7.390625 -2.890625 C 7.390625 -2.40625 7.234375 -1.953125 6.921875 -1.625 C 6.609375 -1.296875 6.1875 -1.140625 5.5625 -1.140625 Z M 2.40625 -1.140625 "/>
</g>
<g id="glyph-1-1">
<path d="M 7.46875 -0.6875 C 7.34375 -0.65625 7.28125 -0.65625 7.21875 -0.65625 C 6.8125 -0.65625 6.578125 -0.859375 6.578125 -1.234375 L 6.578125 -5.53125 C 6.578125 -6.828125 5.640625 -7.515625 3.84375 -7.515625 C 2.78125 -7.515625 1.890625 -7.21875 1.40625 -6.671875 C 1.078125 -6.296875 0.9375 -5.875 0.90625 -5.15625 L 2.078125 -5.15625 C 2.171875 -6.046875 2.703125 -6.453125 3.796875 -6.453125 C 4.84375 -6.453125 5.421875 -6.0625 5.421875 -5.359375 L 5.421875 -5.046875 C 5.421875 -4.5625 5.140625 -4.359375 4.21875 -4.234375 C 2.5625 -4.03125 2.3125 -3.984375 1.875 -3.796875 C 1.015625 -3.453125 0.59375 -2.796875 0.59375 -1.84375 C 0.59375 -0.515625 1.5 0.328125 2.984375 0.328125 C 3.90625 0.328125 4.640625 0 5.46875 -0.75 C 5.546875 -0.015625 5.921875 0.328125 6.671875 0.328125 C 6.90625 0.328125 7.09375 0.296875 7.46875 0.203125 Z M 5.421875 -2.296875 C 5.421875 -1.90625 5.3125 -1.671875 4.96875 -1.359375 C 4.5 -0.921875 3.921875 -0.703125 3.234375 -0.703125 C 2.328125 -0.703125 1.796875 -1.125 1.796875 -1.875 C 1.796875 -2.640625 2.3125 -3.03125 3.5625 -3.203125 C 4.78125 -3.375 5.03125 -3.4375 5.421875 -3.609375 Z M 5.421875 -2.296875 "/>
</g>
<g id="glyph-1-2">
<path d="M 5.40625 -7.3125 L 3.390625 -1.625 L 1.515625 -7.3125 L 0.28125 -7.3125 L 2.75 0.03125 L 2.296875 1.1875 C 2.125 1.703125 1.859375 1.890625 1.375 1.890625 C 1.203125 1.890625 1 1.875 0.75 1.8125 L 0.75 2.859375 C 0.984375 2.984375 1.234375 3.046875 1.53125 3.046875 C 1.90625 3.046875 2.3125 2.921875 2.625 2.6875 C 2.984375 2.421875 3.1875 2.125 3.421875 1.53125 L 6.671875 -7.3125 Z M 5.40625 -7.3125 "/>
</g>
<g id="glyph-1-3">
<path d="M 7.15625 -3.265625 C 7.15625 -4.375 7.078125 -5.046875 6.859375 -5.59375 C 6.390625 -6.796875 5.28125 -7.515625 3.90625 -7.515625 C 1.875 -7.515625 0.5625 -5.953125 0.5625 -3.5625 C 0.5625 -1.15625 1.828125 0.328125 3.875 0.328125 C 5.546875 0.328125 6.71875 -0.625 7 -2.21875 L 5.828125 -2.21875 C 5.515625 -1.25 4.859375 -0.75 3.921875 -0.75 C 3.1875 -0.75 2.546875 -1.09375 2.15625 -1.703125 C 1.890625 -2.125 1.78125 -2.546875 1.765625 -3.265625 Z M 1.796875 -4.21875 C 1.890625 -5.5625 2.71875 -6.453125 3.890625 -6.453125 C 5.03125 -6.453125 5.921875 -5.5 5.921875 -4.296875 C 5.921875 -4.265625 5.921875 -4.234375 5.90625 -4.21875 Z M 1.796875 -4.21875 "/>
</g>
<g id="glyph-1-4">
<path d="M 6.109375 -5.28125 C 6.09375 -6.71875 5.15625 -7.515625 3.453125 -7.515625 C 1.765625 -7.515625 0.65625 -6.640625 0.65625 -5.28125 C 0.65625 -4.140625 1.234375 -3.59375 2.96875 -3.1875 L 4.0625 -2.921875 C 4.875 -2.71875 5.1875 -2.421875 5.1875 -1.890625 C 5.1875 -1.21875 4.5 -0.75 3.484375 -0.75 C 2.859375 -0.75 2.328125 -0.9375 2.03125 -1.234375 C 1.859375 -1.453125 1.765625 -1.65625 1.703125 -2.171875 L 0.46875 -2.171875 C 0.53125 -0.484375 1.484375 0.328125 3.390625 0.328125 C 5.234375 0.328125 6.40625 -0.59375 6.40625 -2 C 6.40625 -3.078125 5.796875 -3.6875 4.34375 -4.03125 L 3.21875 -4.296875 C 2.28125 -4.515625 1.875 -4.828125 1.875 -5.34375 C 1.875 -6.015625 2.46875 -6.453125 3.421875 -6.453125 C 4.359375 -6.453125 4.859375 -6.046875 4.890625 -5.28125 Z M 6.109375 -5.28125 "/>
</g>
<g id="glyph-1-5">
<path d="M 2.09375 -7.3125 L 0.9375 -7.3125 L 0.9375 0 L 2.09375 0 Z M 2.09375 -10.171875 L 0.921875 -10.171875 L 0.921875 -8.703125 L 2.09375 -8.703125 Z M 2.09375 -10.171875 "/>
</g>
<g id="glyph-1-6">
<path d="M 0.984375 -7.3125 L 0.984375 0 L 2.15625 0 L 2.15625 -4.03125 C 2.15625 -5.53125 2.9375 -6.5 4.125 -6.5 C 5.046875 -6.5 5.640625 -5.9375 5.640625 -5.0625 L 5.640625 0 L 6.796875 0 L 6.796875 -5.53125 C 6.796875 -6.734375 5.890625 -7.515625 4.484375 -7.515625 C 3.390625 -7.515625 2.6875 -7.109375 2.046875 -6.078125 L 2.046875 -7.3125 Z M 0.984375 -7.3125 "/>
</g>
<g id="glyph-1-7">
<path d="M 6.609375 -3.0625 L 7.65625 0 L 9.109375 0 L 5.546875 -10.171875 L 3.859375 -10.171875 L 0.234375 0 L 1.625 0 L 2.6875 -3.0625 Z M 6.25 -4.140625 L 3.015625 -4.140625 L 4.6875 -8.78125 Z M 6.25 -4.140625 "/>
</g>
<g id="glyph-1-8">
<path d="M 2.125 -10.171875 L 0.953125 -10.171875 L 0.953125 0 L 2.125 0 Z M 2.125 -10.171875 "/>
</g>
<g id="glyph-1-9">
<path d="M 3.796875 -7.515625 C 1.75 -7.515625 0.5 -6.0625 0.5 -3.59375 C 0.5 -1.140625 1.734375 0.328125 3.8125 0.328125 C 5.859375 0.328125 7.109375 -1.140625 7.109375 -3.546875 C 7.109375 -6.0625 5.90625 -7.515625 3.796875 -7.515625 Z M 3.8125 -6.453125 C 5.125 -6.453125 5.90625 -5.375 5.90625 -3.5625 C 5.90625 -1.84375 5.09375 -0.75 3.8125 -0.75 C 2.515625 -0.75 1.71875 -1.828125 1.71875 -3.59375 C 1.71875 -5.359375 2.515625 -6.453125 3.8125 -6.453125 Z M 3.8125 -6.453125 "/>
</g>
<g id="glyph-1-10">
<path d="M 3.59375 -7.3125 L 2.390625 -7.3125 L 2.390625 -8.453125 C 2.390625 -8.9375 2.671875 -9.1875 3.1875 -9.1875 C 3.296875 -9.1875 3.328125 -9.1875 3.59375 -9.1875 L 3.59375 -10.140625 C 3.328125 -10.203125 3.1875 -10.21875 2.9375 -10.21875 C 1.875 -10.21875 1.234375 -9.59375 1.234375 -8.546875 L 1.234375 -7.3125 L 0.25 -7.3125 L 0.25 -6.359375 L 1.234375 -6.359375 L 1.234375 0 L 2.390625 0 L 2.390625 -6.359375 L 3.59375 -6.359375 Z M 3.59375 -7.3125 "/>
</g>
<g id="glyph-1-11">
<path d="M 9.890625 -5.375 L 5.65625 -5.375 L 5.65625 -4.234375 L 8.75 -4.234375 L 8.75 -3.953125 C 8.75 -2.140625 7.40625 -0.828125 5.546875 -0.828125 C 4.515625 -0.828125 3.59375 -1.203125 2.984375 -1.859375 C 2.3125 -2.578125 1.90625 -3.796875 1.90625 -5.046875 C 1.90625 -7.546875 3.328125 -9.1875 5.484375 -9.1875 C 7.03125 -9.1875 8.15625 -8.40625 8.421875 -7.09375 L 9.75 -7.09375 C 9.390625 -9.15625 7.828125 -10.34375 5.5 -10.34375 C 4.25 -10.34375 3.25 -10.015625 2.453125 -9.359375 C 1.28125 -8.390625 0.609375 -6.8125 0.609375 -4.984375 C 0.609375 -1.859375 2.53125 0.328125 5.28125 0.328125 C 6.65625 0.328125 7.765625 -0.203125 8.75 -1.296875 L 9.0625 0.0625 L 9.890625 0.0625 Z M 9.890625 -5.375 "/>
</g>
<g id="glyph-1-12">
<path d="M 0.96875 -7.3125 L 0.96875 0 L 2.140625 0 L 2.140625 -3.796875 C 2.140625 -4.84375 2.40625 -5.53125 2.953125 -5.9375 C 3.328125 -6.1875 3.671875 -6.28125 4.484375 -6.296875 L 4.484375 -7.484375 C 4.28125 -7.5 4.1875 -7.515625 4.03125 -7.515625 C 3.28125 -7.515625 2.703125 -7.078125 2.03125 -5.984375 L 2.03125 -7.3125 Z M 0.96875 -7.3125 "/>
</g>
<g id="glyph-1-13">
<path d="M 0.75 3.046875 L 1.921875 3.046875 L 1.921875 -0.765625 C 2.546875 -0.015625 3.21875 0.328125 4.171875 0.328125 C 6.0625 0.328125 7.296875 -1.203125 7.296875 -3.53125 C 7.296875 -5.984375 6.09375 -7.515625 4.15625 -7.515625 C 3.171875 -7.515625 2.375 -7.078125 1.828125 -6.203125 L 1.828125 -7.3125 L 0.75 -7.3125 Z M 3.96875 -6.4375 C 5.25 -6.4375 6.078125 -5.296875 6.078125 -3.5625 C 6.078125 -1.890625 5.234375 -0.765625 3.96875 -0.765625 C 2.734375 -0.765625 1.921875 -1.890625 1.921875 -3.59375 C 1.921875 -5.3125 2.734375 -6.4375 3.96875 -6.4375 Z M 3.96875 -6.4375 "/>
</g>
<g id="glyph-1-14">
<path d="M 0.984375 -10.171875 L 0.984375 0 L 2.140625 0 L 2.140625 -4.03125 C 2.140625 -5.53125 2.921875 -6.5 4.109375 -6.5 C 4.5 -6.5 4.875 -6.375 5.15625 -6.171875 C 5.484375 -5.9375 5.625 -5.578125 5.625 -5.0625 L 5.625 0 L 6.78125 0 L 6.78125 -5.53125 C 6.78125 -6.75 5.90625 -7.515625 4.484375 -7.515625 C 3.453125 -7.515625 2.8125 -7.203125 2.140625 -6.3125 L 2.140625 -10.171875 Z M 0.984375 -10.171875 "/>
</g>
<g id="glyph-1-15">
<path d="M 6.578125 -4.859375 C 6.515625 -5.5625 6.359375 -6.03125 6.078125 -6.4375 C 5.578125 -7.109375 4.703125 -7.515625 3.6875 -7.515625 C 1.71875 -7.515625 0.4375 -5.953125 0.4375 -3.53125 C 0.4375 -1.171875 1.6875 0.328125 3.671875 0.328125 C 5.40625 0.328125 6.515625 -0.71875 6.65625 -2.515625 L 5.484375 -2.515625 C 5.28125 -1.34375 4.6875 -0.75 3.703125 -0.75 C 2.40625 -0.75 1.640625 -1.796875 1.640625 -3.53125 C 1.640625 -5.359375 2.40625 -6.453125 3.671875 -6.453125 C 4.640625 -6.453125 5.265625 -5.875 5.40625 -4.859375 Z M 6.578125 -4.859375 "/>
</g>
<g id="glyph-1-16">
<path d="M 6.53125 0 L 9.390625 -8.53125 L 9.390625 0 L 10.625 0 L 10.625 -10.171875 L 8.8125 -10.171875 L 5.859375 -1.3125 L 2.84375 -10.171875 L 1.046875 -10.171875 L 1.046875 0 L 2.28125 0 L 2.28125 -8.53125 L 5.15625 0 Z M 6.53125 0 "/>
</g>
<g id="glyph-1-17">
<path d="M 6.90625 -10.171875 L 5.75 -10.171875 L 5.75 -6.390625 C 5.265625 -7.125 4.484375 -7.515625 3.5 -7.515625 C 1.609375 -7.515625 0.359375 -6 0.359375 -3.671875 C 0.359375 -1.203125 1.578125 0.328125 3.546875 0.328125 C 4.546875 0.328125 5.25 -0.0625 5.875 -0.96875 L 5.875 0 L 6.90625 0 Z M 3.703125 -6.4375 C 4.953125 -6.4375 5.75 -5.3125 5.75 -3.578125 C 5.75 -1.890625 4.9375 -0.765625 3.71875 -0.765625 C 2.421875 -0.765625 1.578125 -1.890625 1.578125 -3.59375 C 1.578125 -5.296875 2.421875 -6.4375 3.703125 -6.4375 Z M 3.703125 -6.4375 "/>
</g>
</g>
<clipPath id="clip-0">
<path clip-rule="nonzero" d="M 0 0 L 566.929688 0 L 566.929688 141.730469 L 0 141.730469 Z M 0 0 "/>
</clipPath>
<clipPath id="clip-1">
<path clip-rule="nonzero" d="M 312 0 L 496 0 L 496 141.730469 L 312 141.730469 Z M 312 0 "/>
</clipPath>
<clipPath id="clip-2">
<path clip-rule="nonzero" d="M 326 0 L 539 0 L 539 141.730469 L 326 141.730469 Z M 326 0 "/>
</clipPath>
<clipPath id="clip-3">
<path clip-rule="nonzero" d="M 397 0 L 566.929688 0 L 566.929688 133 L 397 133 Z M 397 0 "/>
</clipPath>
<clipPath id="clip-4">
<path clip-rule="nonzero" d="M 283 0 L 496 0 L 496 141.730469 L 283 141.730469 Z M 283 0 "/>
</clipPath>
<clipPath id="clip-5">
<path clip-rule="nonzero" d="M 298 14 L 496 14 L 496 141.730469 L 298 141.730469 Z M 298 14 "/>
</clipPath>
<clipPath id="clip-6">
<path clip-rule="nonzero" d="M 354 8 L 553 8 L 553 141.730469 L 354 141.730469 Z M 354 8 "/>
</clipPath>
<clipPath id="clip-7">
<path clip-rule="nonzero" d="M 411 8 L 566.929688 8 L 566.929688 141.730469 L 411 141.730469 Z M 411 8 "/>
</clipPath>
<clipPath id="clip-8">
<path clip-rule="nonzero" d="M 397 0 L 566.929688 0 L 566.929688 99 L 397 99 Z M 397 0 "/>
</clipPath>
<clipPath id="clip-9">
<path clip-rule="nonzero" d="M 283 0 L 425 0 L 425 141.730469 L 283 141.730469 Z M 283 0 "/>
</clipPath>
<clipPath id="clip-10">
<path clip-rule="nonzero" d="M 453 0 L 566.929688 0 L 566.929688 141.730469 L 453 141.730469 Z M 453 0 "/>
</clipPath>
<clipPath id="clip-11">
<path clip-rule="nonzero" d="M 375 13 L 518 13 L 518 141.730469 L 375 141.730469 Z M 375 13 "/>
</clipPath>
</defs>
<g clip-path="url(#clip-0)">
<path fill-rule="nonzero" fill="rgb(11.373901%, 20.783997%, 34.118652%)" fill-opacity="1" d="M 0 141.730469 L 0 -0.00390625 L 566.9375 -0.00390625 L 566.9375 141.730469 Z M 0 141.730469 "/>
</g>
<g fill="rgb(100%, 100%, 100%)" fill-opacity="1">
<use xlink:href="#glyph-0-0" x="31.866" y="62.955"/>
<use xlink:href="#glyph-0-1" x="61.084448" y="62.955"/>
<use xlink:href="#glyph-0-2" x="90.302895" y="62.955"/>
<use xlink:href="#glyph-0-3" x="132.815498" y="62.955"/>
</g>
<g fill="rgb(65.879822%, 85.488892%, 86.274719%)" fill-opacity="1">
<use xlink:href="#glyph-1-0" x="33.284" y="97.191"/>
<use xlink:href="#glyph-1-1" x="42.587116" y="97.191"/>
</g>
<g fill="rgb(65.879822%, 85.488892%, 86.274719%)" fill-opacity="1">
<use xlink:href="#glyph-1-2" x="49.923606" y="97.191"/>
</g>
<g fill="rgb(65.879822%, 85.488892%, 86.274719%)" fill-opacity="1">
<use xlink:href="#glyph-1-3" x="56.618502" y="97.191"/>
<use xlink:href="#glyph-1-4" x="64.373423" y="97.191"/>
<use xlink:href="#glyph-1-5" x="71.347273" y="97.191"/>
<use xlink:href="#glyph-1-1" x="74.443663" y="97.191"/>
<use xlink:href="#glyph-1-6" x="82.198584" y="97.191"/>
</g>
<g fill="rgb(65.879822%, 85.488892%, 86.274719%)" fill-opacity="1">
<use xlink:href="#glyph-1-7" x="93.830966" y="97.191"/>
<use xlink:href="#glyph-1-6" x="103.134082" y="97.191"/>
<use xlink:href="#glyph-1-1" x="110.889003" y="97.191"/>
<use xlink:href="#glyph-1-8" x="118.643924" y="97.191"/>
<use xlink:href="#glyph-1-2" x="121.740313" y="97.191"/>
<use xlink:href="#glyph-1-4" x="128.714163" y="97.191"/>
<use xlink:href="#glyph-1-5" x="135.688013" y="97.191"/>
<use xlink:href="#glyph-1-4" x="138.784403" y="97.191"/>
</g>
<g fill="rgb(65.879822%, 85.488892%, 86.274719%)" fill-opacity="1">
<use xlink:href="#glyph-1-9" x="149.635713" y="97.191"/>
<use xlink:href="#glyph-1-10" x="157.390635" y="97.191"/>
</g>
<g fill="rgb(65.879822%, 85.488892%, 86.274719%)" fill-opacity="1">
<use xlink:href="#glyph-1-11" x="165.145556" y="97.191"/>
<use xlink:href="#glyph-1-12" x="175.996866" y="97.191"/>
</g>
<g fill="rgb(65.879822%, 85.488892%, 86.274719%)" fill-opacity="1">
<use xlink:href="#glyph-1-1" x="180.501974" y="97.191"/>
<use xlink:href="#glyph-1-13" x="188.256895" y="97.191"/>
<use xlink:href="#glyph-1-14" x="196.011816" y="97.191"/>
<use xlink:href="#glyph-1-5" x="203.766737" y="97.191"/>
<use xlink:href="#glyph-1-15" x="206.863127" y="97.191"/>
<use xlink:href="#glyph-1-1" x="213.836977" y="97.191"/>
<use xlink:href="#glyph-1-8" x="221.591898" y="97.191"/>
</g>
<g fill="rgb(65.879822%, 85.488892%, 86.274719%)" fill-opacity="1">
<use xlink:href="#glyph-1-16" x="228.565748" y="97.191"/>
<use xlink:href="#glyph-1-9" x="240.184182" y="97.191"/>
<use xlink:href="#glyph-1-17" x="247.939103" y="97.191"/>
<use xlink:href="#glyph-1-3" x="255.694024" y="97.191"/>
<use xlink:href="#glyph-1-8" x="263.448945" y="97.191"/>
<use xlink:href="#glyph-1-4" x="266.545335" y="97.191"/>
</g>
<path fill="none" stroke-width="5.97766" stroke-linecap="butt" stroke-linejoin="miter" stroke="rgb(65.879822%, 85.488892%, 86.274719%)" stroke-opacity="0.06" stroke-miterlimit="10" d="M 340.160156 107.716375 L 396.855469 119.056219 " transform="matrix(1, 0, 0, -1, 0, 141.732)"/>
<path fill="none" stroke-width="2.98883" stroke-linecap="butt" stroke-linejoin="miter" stroke="rgb(65.879822%, 85.488892%, 86.274719%)" stroke-opacity="0.15" stroke-miterlimit="10" d="M 340.160156 107.716375 L 362.839844 112.251531 " transform="matrix(1, 0, 0, -1, 0, 141.732)"/>
<path fill="none" stroke-width="1.99255" stroke-linecap="butt" stroke-linejoin="miter" stroke="rgb(65.879822%, 85.488892%, 86.274719%)" stroke-opacity="0.25" stroke-miterlimit="10" d="M 357.171875 111.118719 L 379.847656 115.653875 " transform="matrix(1, 0, 0, -1, 0, 141.732)"/>
<path fill="none" stroke-width="1.19553" stroke-linecap="butt" stroke-linejoin="miter" stroke="rgb(65.879822%, 85.488892%, 86.274719%)" stroke-opacity="0.7" stroke-miterlimit="10" d="M 368.507812 113.38825 L 396.855469 119.056219 " transform="matrix(1, 0, 0, -1, 0, 141.732)"/>
<g clip-path="url(#clip-1)">
<path fill="none" stroke-width="5.97766" stroke-linecap="butt" stroke-linejoin="miter" stroke="rgb(65.879822%, 85.488892%, 86.274719%)" stroke-opacity="0.06" stroke-miterlimit="10" d="M 396.855469 119.056219 L 411.027344 85.040594 " transform="matrix(1, 0, 0, -1, 0, 141.732)"/>
</g>
<path fill="none" stroke-width="2.98883" stroke-linecap="butt" stroke-linejoin="miter" stroke="rgb(65.879822%, 85.488892%, 86.274719%)" stroke-opacity="0.15" stroke-miterlimit="10" d="M 396.855469 119.056219 L 402.523438 105.45075 " transform="matrix(1, 0, 0, -1, 0, 141.732)"/>
<path fill="none" stroke-width="1.99255" stroke-linecap="butt" stroke-linejoin="miter" stroke="rgb(65.879822%, 85.488892%, 86.274719%)" stroke-opacity="0.3" stroke-miterlimit="10" d="M 401.105469 108.853094 L 406.777344 95.243719 " transform="matrix(1, 0, 0, -1, 0, 141.732)"/>
<path fill="none" stroke-width="1.19553" stroke-linecap="butt" stroke-linejoin="miter" stroke="rgb(65.879822%, 85.488892%, 86.274719%)" stroke-opacity="0.75" stroke-miterlimit="10" d="M 403.941406 102.048406 L 411.027344 85.040594 " transform="matrix(1, 0, 0, -1, 0, 141.732)"/>
<g clip-path="url(#clip-2)">
<path fill="none" stroke-width="5.97766" stroke-linecap="butt" stroke-linejoin="miter" stroke="rgb(65.879822%, 85.488892%, 86.274719%)" stroke-opacity="0.06" stroke-miterlimit="10" d="M 411.027344 85.040594 L 453.550781 99.212469 " transform="matrix(1, 0, 0, -1, 0, 141.732)"/>
</g>
<path fill="none" stroke-width="2.98883" stroke-linecap="butt" stroke-linejoin="miter" stroke="rgb(65.879822%, 85.488892%, 86.274719%)" stroke-opacity="0.18" stroke-miterlimit="10" d="M 411.027344 85.040594 L 428.035156 90.708562 " transform="matrix(1, 0, 0, -1, 0, 141.732)"/>
<path fill="none" stroke-width="1.99255" stroke-linecap="butt" stroke-linejoin="miter" stroke="rgb(65.879822%, 85.488892%, 86.274719%)" stroke-opacity="0.35" stroke-miterlimit="10" d="M 423.785156 89.290594 L 440.792969 94.962469 " transform="matrix(1, 0, 0, -1, 0, 141.732)"/>
<path fill="none" stroke-width="1.19553" stroke-linecap="butt" stroke-linejoin="miter" stroke="rgb(65.879822%, 85.488892%, 86.274719%)" stroke-opacity="0.75" stroke-miterlimit="10" d="M 432.289062 92.126531 L 453.550781 99.212469 " transform="matrix(1, 0, 0, -1, 0, 141.732)"/>
<path fill="none" stroke-width="4.98138" stroke-linecap="butt" stroke-linejoin="miter" stroke="rgb(65.879822%, 85.488892%, 86.274719%)" stroke-opacity="0.06" stroke-miterlimit="10" d="M 453.550781 99.212469 L 467.722656 79.372625 " transform="matrix(1, 0, 0, -1, 0, 141.732)"/>
<path fill="none" stroke-width="2.49069" stroke-linecap="butt" stroke-linejoin="miter" stroke="rgb(65.879822%, 85.488892%, 86.274719%)" stroke-opacity="0.2" stroke-miterlimit="10" d="M 453.550781 99.212469 L 460.636719 89.290594 " transform="matrix(1, 0, 0, -1, 0, 141.732)"/>
<path fill="none" stroke-width="1.19553" stroke-linecap="butt" stroke-linejoin="miter" stroke="rgb(65.879822%, 85.488892%, 86.274719%)" stroke-opacity="0.7" stroke-miterlimit="10" d="M 459.21875 91.274969 L 467.722656 79.372625 " transform="matrix(1, 0, 0, -1, 0, 141.732)"/>
<g clip-path="url(#clip-3)">
<path fill="none" stroke-width="4.98138" stroke-linecap="butt" stroke-linejoin="miter" stroke="rgb(65.879822%, 85.488892%, 86.274719%)" stroke-opacity="0.06" stroke-miterlimit="10" d="M 467.722656 79.372625 L 510.242188 113.38825 " transform="matrix(1, 0, 0, -1, 0, 141.732)"/>
</g>
<path fill="none" stroke-width="2.49069" stroke-linecap="butt" stroke-linejoin="miter" stroke="rgb(65.879822%, 85.488892%, 86.274719%)" stroke-opacity="0.2" stroke-miterlimit="10" d="M 467.722656 79.372625 L 488.984375 96.380437 " transform="matrix(1, 0, 0, -1, 0, 141.732)"/>
<path fill="none" stroke-width="1.19553" stroke-linecap="butt" stroke-linejoin="miter" stroke="rgb(65.879822%, 85.488892%, 86.274719%)" stroke-opacity="0.65" stroke-miterlimit="10" d="M 484.730469 92.978094 L 510.242188 113.38825 " transform="matrix(1, 0, 0, -1, 0, 141.732)"/>
<g clip-path="url(#clip-4)">
<path fill="none" stroke-width="5.97766" stroke-linecap="butt" stroke-linejoin="miter" stroke="rgb(65.879822%, 85.488892%, 86.274719%)" stroke-opacity="0.06" stroke-miterlimit="10" d="M 368.507812 56.692937 L 411.027344 85.040594 " transform="matrix(1, 0, 0, -1, 0, 141.732)"/>
</g>
<path fill="none" stroke-width="2.98883" stroke-linecap="butt" stroke-linejoin="miter" stroke="rgb(65.879822%, 85.488892%, 86.274719%)" stroke-opacity="0.15" stroke-miterlimit="10" d="M 368.507812 56.692937 L 385.515625 68.032781 " transform="matrix(1, 0, 0, -1, 0, 141.732)"/>
<path fill="none" stroke-width="1.99255" stroke-linecap="butt" stroke-linejoin="miter" stroke="rgb(65.879822%, 85.488892%, 86.274719%)" stroke-opacity="0.3" stroke-miterlimit="10" d="M 381.265625 65.196844 L 398.273438 76.536687 " transform="matrix(1, 0, 0, -1, 0, 141.732)"/>
<path fill="none" stroke-width="1.19553" stroke-linecap="butt" stroke-linejoin="miter" stroke="rgb(65.879822%, 85.488892%, 86.274719%)" stroke-opacity="0.7" stroke-miterlimit="10" d="M 389.769531 70.868719 L 411.027344 85.040594 " transform="matrix(1, 0, 0, -1, 0, 141.732)"/>
<g clip-path="url(#clip-5)">
<path fill="none" stroke-width="4.98138" stroke-linecap="butt" stroke-linejoin="miter" stroke="rgb(65.879822%, 85.488892%, 86.274719%)" stroke-opacity="0.06" stroke-miterlimit="10" d="M 368.507812 56.692937 L 425.203125 42.521062 " transform="matrix(1, 0, 0, -1, 0, 141.732)"/>
</g>
<path fill="none" stroke-width="2.49069" stroke-linecap="butt" stroke-linejoin="miter" stroke="rgb(65.879822%, 85.488892%, 86.274719%)" stroke-opacity="0.18" stroke-miterlimit="10" d="M 368.507812 56.692937 L 396.855469 49.607 " transform="matrix(1, 0, 0, -1, 0, 141.732)"/>
<path fill="none" stroke-width="1.19553" stroke-linecap="butt" stroke-linejoin="miter" stroke="rgb(65.879822%, 85.488892%, 86.274719%)" stroke-opacity="0.65" stroke-miterlimit="10" d="M 391.1875 51.024969 L 425.203125 42.521062 " transform="matrix(1, 0, 0, -1, 0, 141.732)"/>
<g clip-path="url(#clip-6)">
<path fill="none" stroke-width="4.98138" stroke-linecap="butt" stroke-linejoin="miter" stroke="rgb(65.879822%, 85.488892%, 86.274719%)" stroke-opacity="0.06" stroke-miterlimit="10" d="M 425.203125 42.521062 L 481.894531 62.364812 " transform="matrix(1, 0, 0, -1, 0, 141.732)"/>
</g>
<path fill="none" stroke-width="2.49069" stroke-linecap="butt" stroke-linejoin="miter" stroke="rgb(65.879822%, 85.488892%, 86.274719%)" stroke-opacity="0.2" stroke-miterlimit="10" d="M 425.203125 42.521062 L 453.550781 52.442937 " transform="matrix(1, 0, 0, -1, 0, 141.732)"/>
<path fill="none" stroke-width="1.19553" stroke-linecap="butt" stroke-linejoin="miter" stroke="rgb(65.879822%, 85.488892%, 86.274719%)" stroke-opacity="0.7" stroke-miterlimit="10" d="M 447.878906 50.458562 L 481.894531 62.364812 " transform="matrix(1, 0, 0, -1, 0, 141.732)"/>
<g clip-path="url(#clip-7)">
<path fill="none" stroke-width="4.98138" stroke-linecap="butt" stroke-linejoin="miter" stroke="rgb(65.879822%, 85.488892%, 86.274719%)" stroke-opacity="0.06" stroke-miterlimit="10" d="M 481.894531 62.364812 L 538.589844 51.024969 " transform="matrix(1, 0, 0, -1, 0, 141.732)"/>
</g>
<path fill="none" stroke-width="2.49069" stroke-linecap="butt" stroke-linejoin="miter" stroke="rgb(65.879822%, 85.488892%, 86.274719%)" stroke-opacity="0.2" stroke-miterlimit="10" d="M 481.894531 62.364812 L 510.242188 56.692937 " transform="matrix(1, 0, 0, -1, 0, 141.732)"/>
<path fill="none" stroke-width="1.19553" stroke-linecap="butt" stroke-linejoin="miter" stroke="rgb(65.879822%, 85.488892%, 86.274719%)" stroke-opacity="0.65" stroke-miterlimit="10" d="M 504.574219 57.82575 L 538.589844 51.024969 " transform="matrix(1, 0, 0, -1, 0, 141.732)"/>
<path fill="none" stroke-width="4.98138" stroke-linecap="butt" stroke-linejoin="miter" stroke="rgb(65.879822%, 85.488892%, 86.274719%)" stroke-opacity="0.08" stroke-miterlimit="10" d="M 396.855469 119.056219 L 453.550781 99.212469 " transform="matrix(1, 0, 0, -1, 0, 141.732)"/>
<path fill="none" stroke-width="1.99255" stroke-linecap="butt" stroke-linejoin="miter" stroke="rgb(65.879822%, 85.488892%, 86.274719%)" stroke-opacity="0.04" stroke-miterlimit="10" d="M 413.863281 113.103094 L 436.539062 105.165594 " transform="matrix(1, 0, 0, -1, 0, 141.732)"/>
<g clip-path="url(#clip-8)">
<path fill="none" stroke-width="3.9851" stroke-linecap="butt" stroke-linejoin="miter" stroke="rgb(65.879822%, 85.488892%, 86.274719%)" stroke-opacity="0.06" stroke-miterlimit="10" d="M 453.550781 99.212469 L 510.242188 113.38825 " transform="matrix(1, 0, 0, -1, 0, 141.732)"/>
</g>
<path fill="none" stroke-width="1.49442" stroke-linecap="butt" stroke-linejoin="miter" stroke="rgb(65.879822%, 85.488892%, 86.274719%)" stroke-opacity="0.03" stroke-miterlimit="10" d="M 476.226562 104.884344 L 498.902344 110.552312 " transform="matrix(1, 0, 0, -1, 0, 141.732)"/>
<g clip-path="url(#clip-9)">
<path fill="none" stroke-width="3.9851" stroke-linecap="butt" stroke-linejoin="miter" stroke="rgb(65.879822%, 85.488892%, 86.274719%)" stroke-opacity="0.07" stroke-miterlimit="10" d="M 340.160156 107.716375 L 368.507812 56.692937 " transform="matrix(1, 0, 0, -1, 0, 141.732)"/>
</g>
<g clip-path="url(#clip-10)">
<path fill="none" stroke-width="3.9851" stroke-linecap="butt" stroke-linejoin="miter" stroke="rgb(65.879822%, 85.488892%, 86.274719%)" stroke-opacity="0.05" stroke-miterlimit="10" d="M 510.242188 113.38825 L 538.589844 51.024969 " transform="matrix(1, 0, 0, -1, 0, 141.732)"/>
</g>
<g clip-path="url(#clip-11)">
<path fill="none" stroke-width="3.48697" stroke-linecap="butt" stroke-linejoin="miter" stroke="rgb(65.879822%, 85.488892%, 86.274719%)" stroke-opacity="0.06" stroke-miterlimit="10" d="M 425.203125 42.521062 L 467.722656 79.372625 " transform="matrix(1, 0, 0, -1, 0, 141.732)"/>
</g>
<path fill="none" stroke-width="3.9851" stroke-linecap="butt" stroke-linejoin="miter" stroke="rgb(65.879822%, 85.488892%, 86.274719%)" stroke-opacity="0.07" stroke-miterlimit="10" d="M 411.027344 85.040594 L 467.722656 79.372625 " transform="matrix(1, 0, 0, -1, 0, 141.732)"/>
<path fill-rule="nonzero" fill="rgb(65.879822%, 85.488892%, 86.274719%)" fill-opacity="1" d="M 344.148438 34.015625 C 344.148438 31.8125 342.363281 30.027344 340.160156 30.027344 C 337.960938 30.027344 336.175781 31.8125 336.175781 34.015625 C 336.175781 36.214844 337.960938 38 340.160156 38 C 342.363281 38 344.148438 36.214844 344.148438 34.015625 Z M 344.148438 34.015625 "/>
<path fill-rule="nonzero" fill="rgb(65.879822%, 85.488892%, 86.274719%)" fill-opacity="1" d="M 401.835938 22.675781 C 401.835938 19.925781 399.605469 17.695312 396.855469 17.695312 C 394.105469 17.695312 391.875 19.925781 391.875 22.675781 C 391.875 25.425781 394.105469 27.65625 396.855469 27.65625 C 399.605469 27.65625 401.835938 25.425781 401.835938 22.675781 Z M 401.835938 22.675781 "/>
<path fill-rule="nonzero" fill="rgb(65.879822%, 85.488892%, 86.274719%)" fill-opacity="1" d="M 459.527344 42.519531 C 459.527344 39.214844 456.851562 36.539062 453.550781 36.539062 C 450.246094 36.539062 447.570312 39.214844 447.570312 42.519531 C 447.570312 45.820312 450.246094 48.496094 453.550781 48.496094 C 456.851562 48.496094 459.527344 45.820312 459.527344 42.519531 Z M 459.527344 42.519531 "/>
<path fill-rule="nonzero" fill="rgb(65.879822%, 85.488892%, 86.274719%)" fill-opacity="1" d="M 514.726562 28.34375 C 514.726562 25.867188 512.71875 23.863281 510.242188 23.863281 C 507.765625 23.863281 505.757812 25.867188 505.757812 28.34375 C 505.757812 30.820312 507.765625 32.828125 510.242188 32.828125 C 512.71875 32.828125 514.726562 30.820312 514.726562 28.34375 Z M 514.726562 28.34375 "/>
<path fill-rule="nonzero" fill="rgb(65.879822%, 85.488892%, 86.274719%)" fill-opacity="1" d="M 373.988281 85.039062 C 373.988281 82.011719 371.535156 79.558594 368.507812 79.558594 C 365.480469 79.558594 363.027344 82.011719 363.027344 85.039062 C 363.027344 88.066406 365.480469 90.519531 368.507812 90.519531 C 371.535156 90.519531 373.988281 88.066406 373.988281 85.039062 Z M 373.988281 85.039062 "/>
<path fill-rule="nonzero" fill="rgb(65.879822%, 85.488892%, 86.274719%)" fill-opacity="1" d="M 429.1875 99.210938 C 429.1875 97.011719 427.402344 95.226562 425.203125 95.226562 C 423 95.226562 421.21875 97.011719 421.21875 99.210938 C 421.21875 101.414062 423 103.195312 425.203125 103.195312 C 427.402344 103.195312 429.1875 101.414062 429.1875 99.210938 Z M 429.1875 99.210938 "/>
<path fill-rule="nonzero" fill="rgb(65.879822%, 85.488892%, 86.274719%)" fill-opacity="1" d="M 486.878906 79.367188 C 486.878906 76.617188 484.648438 74.386719 481.894531 74.386719 C 479.144531 74.386719 476.914062 76.617188 476.914062 79.367188 C 476.914062 82.121094 479.144531 84.351562 481.894531 84.351562 C 484.648438 84.351562 486.878906 82.121094 486.878906 79.367188 Z M 486.878906 79.367188 "/>
<path fill-rule="nonzero" fill="rgb(65.879822%, 85.488892%, 86.274719%)" fill-opacity="1" d="M 542.078125 90.707031 C 542.078125 88.78125 540.515625 87.222656 538.589844 87.222656 C 536.664062 87.222656 535.101562 88.78125 535.101562 90.707031 C 535.101562 92.632812 536.664062 94.195312 538.589844 94.195312 C 540.515625 94.195312 542.078125 92.632812 542.078125 90.707031 Z M 542.078125 90.707031 "/>
<path fill-rule="nonzero" fill="rgb(65.879822%, 85.488892%, 86.274719%)" fill-opacity="1" d="M 417.503906 56.691406 C 417.503906 53.113281 414.605469 50.214844 411.027344 50.214844 C 407.453125 50.214844 404.554688 53.113281 404.554688 56.691406 C 404.554688 60.269531 407.453125 63.167969 411.027344 63.167969 C 414.605469 63.167969 417.503906 60.269531 417.503906 56.691406 Z M 417.503906 56.691406 "/>
<path fill-rule="nonzero" fill="rgb(65.879822%, 85.488892%, 86.274719%)" fill-opacity="1" d="M 472.703125 62.359375 C 472.703125 59.609375 470.472656 57.378906 467.722656 57.378906 C 464.972656 57.378906 462.742188 59.609375 462.742188 62.359375 C 462.742188 65.113281 464.972656 67.34375 467.722656 67.34375 C 470.472656 67.34375 472.703125 65.113281 472.703125 62.359375 Z M 472.703125 62.359375 "/>
<path fill-rule="nonzero" fill="rgb(65.879822%, 85.488892%, 86.274719%)" fill-opacity="0.1" d="M 423.980469 56.691406 C 423.980469 49.539062 418.183594 43.738281 411.027344 43.738281 C 403.875 43.738281 398.078125 49.539062 398.078125 56.691406 C 398.078125 63.84375 403.875 69.644531 411.027344 69.644531 C 418.183594 69.644531 423.980469 63.84375 423.980469 56.691406 Z M 423.980469 56.691406 "/>
<path fill-rule="nonzero" fill="rgb(65.879822%, 85.488892%, 86.274719%)" fill-opacity="0.1" d="M 465.503906 42.519531 C 465.503906 35.914062 460.152344 30.5625 453.550781 30.5625 C 446.945312 30.5625 441.59375 35.914062 441.59375 42.519531 C 441.59375 49.121094 446.945312 54.472656 453.550781 54.472656 C 460.152344 54.472656 465.503906 49.121094 465.503906 42.519531 Z M 465.503906 42.519531 "/>
</svg>
